<?xml version="1.0" encoding="UTF-8"?>
<!-- Created with Inkscape (http://www.inkscape.org/) -->
<svg width="210mm" height="297mm" inkscape:version="1.2 (dc2aedaf03, 2022-05-15)" sodipodi:docname="logo.svg" version="1.1" viewBox="0 0 210 297" xmlns="http://www.w3.org/2000/svg" xmlns:inkscape="http://www.inkscape.org/namespaces/inkscape" xmlns:sodipodi="http://sodipodi.sourceforge.net/DTD/sodipodi-0.dtd">
 <sodipodi:namedview bordercolor="#eeeeee" borderopacity="1" inkscape:current-layer="svg5" inkscape:cx="124.85653" inkscape:cy="312.73589" inkscape:deskcolor="#505050" inkscape:document-units="mm" inkscape:pagecheckerboard="0" inkscape:pageopacity="0" inkscape:showpageshadow="0" inkscape:window-height="961" inkscape:window-maximized="1" inkscape:window-width="1280" inkscape:window-x="-8" inkscape:window-y="-8" inkscape:zoom="0.84096521" pagecolor="#505050" showgrid="false"/>
 <g>
  <ellipse cx="38.777" cy="55.294" rx="4.6718" ry="6.7853" stroke-width=".61448"/>
  <ellipse cx="39.667" cy="55.49" rx="2.8921" ry="4.2004" fill="#fff" stroke-width=".38039"/>
  <text transform="rotate(90)" x="97.892998" y="-32.098106" fill="#000000" font-family="sans-serif" font-size="105.83px" font-weight="bold" stroke-width=".26458" xml:space="preserve"><tspan x="97.892998" y="-32.098106" fill="#000000" font-family="sans-serif" font-size="105.83px" font-weight="bold" stroke-width=".26458" sodipodi:role="line">8</tspan></text>
 </g>
 <g inkscape:groupmode="layer" inkscape:label="Layer 1">
  <g transform="rotate(180 109.56 59.111)">
   <ellipse transform="scale(-1)" cx="-116.24" cy="-63.793" rx="4.6718" ry="6.7853" stroke-width=".61448"/>
   <ellipse transform="scale(-1)" cx="-117.13" cy="-63.989" rx="2.8921" ry="4.2004" fill="#fff" stroke-width=".38039"/>
  </g>
  <ellipse transform="rotate(90)" cx="54.95" cy="-70.523" rx="27.364" ry="29.143" stroke-width=".26458" inkscape:label="head"/>
 </g>
 <g inkscape:groupmode="layer" inkscape:label="Mave">
  <ellipse cx="71.079" cy="95.662" rx="33.259" ry="30.256" stroke-width=".28235"/>
 </g>
 <g inkscape:groupmode="layer" inkscape:label="Crown">
  <path d="m47.76 36.995 38.096-5.5878-0.92448-24.46-7.9661 12.474-7.2929-9.3314-3.9965 10.644-7.0225-7.7978-4.7697 10.103-13.414-10.737" fill="#ff0" stroke-width=".26458" sodipodi:nodetypes="ccccccccc"/>
 </g>
 <g fill="#fff">
  <ellipse cx="60.881" cy="49.166" rx="11.271" ry="11.791" stroke-width=".20622"/>
  <ellipse cx="81.424" cy="48.943" rx="11.271" ry="11.791" stroke-width=".20622"/>
  <ellipse cx="71.857" cy="61.922" rx="17.722" ry="18.54" stroke-width=".32426"/>
 </g>
 <text x="57.396996" y="45.383671" fill="#ffffff" font-size="3.175px" stroke-width=".26458" xml:space="preserve"><tspan stroke-width=".26458" sodipodi:role="line"/></text>
 <text x="57.84193" y="48.053299" fill="#ffffff" font-size="3.175px" stroke-width=".26458" xml:space="preserve"><tspan stroke-width=".26458" sodipodi:role="line"/></text>
 <g stroke-width=".26458">
  <ellipse cx="61.624" cy="51.613" rx="2.4472" ry="2.6696"/>
  <ellipse cx="81.424" cy="49.833" rx="2.4472" ry="2.6696"/>
  <ellipse transform="rotate(45)" cx="90.61" cy="-5.3485" rx="3.782" ry="1.5573"/>
  <ellipse transform="matrix(-.70711 .70711 .70711 .70711 0 0)" cx="-11.641" cy="96.588" rx="3.782" ry="1.5573"/>
  <path d="m57.842 64.516 19.132 9.7886c-3.3324 0.76696-6.7189 1.6695-8.8988-0.44494" sodipodi:nodetypes="ccc"/>
 </g>
 <g transform="translate(14.033 -41.379)" fill="#ff0">
  <ellipse cx="45.606" cy="144.38" rx="4.2269" ry="33.593" stroke-width=".13986"/>
  <ellipse cx="41.587" cy="142.38" rx="1.9875" ry="15.795" stroke-width=".065761"/>
 </g>
 <g transform="matrix(-1 0 0 1 129.1 -41.824)" fill="#ff0">
  <ellipse cx="45.606" cy="144.38" rx="4.2269" ry="33.593" stroke-width=".13986"/>
  <ellipse cx="41.587" cy="142.38" rx="1.9875" ry="15.795" stroke-width=".065761"/>
 </g>
</svg>
